<?xml version="1.0" standalone="no"?>
<!DOCTYPE svg PUBLIC "-//W3C//DTD SVG 20010904//EN"
 "http://www.w3.org/TR/2001/REC-SVG-20010904/DTD/svg10.dtd">
<svg version="1.0" xmlns="http://www.w3.org/2000/svg"
 width="700" height="700" viewBox="0 0 700 700"
 preserveAspectRatio="xMidYMid meet">
<g transform="translate(0,700) scale(0.1,-0.1)"
fill="#000000" stroke="none">
<path d="M2427 5963 c-6 -10 -739 -2255 -741 -2268 -1 -6 81 -10 229 -10 l229
0 53 183 c28 101 59 208 68 238 l16 54 344 0 c319 0 344 -1 349 -17 2 -10 33
-118 67 -240 l62 -223 228 0 c177 0 229 3 229 13 0 6 -164 521 -364 1142
l-363 1130 -201 3 c-110 1 -203 -1 -205 -5z m322 -1009 c61 -221 111 -404 111
-408 0 -3 -106 -6 -236 -6 -185 0 -235 3 -232 13 3 6 56 193 119 414 63 221
117 399 120 395 4 -4 57 -188 118 -408z"/>
<path d="M3760 4829 l0 -1140 408 3 407 4 90 27 c374 115 614 401 680 810 17
107 20 453 5 562 -65 455 -346 769 -765 856 -78 16 -138 19 -457 19 l-368 0 0
-1141z m770 761 c175 -58 298 -204 351 -413 27 -105 38 -437 20 -582 -24 -186
-82 -324 -177 -418 -100 -99 -209 -137 -396 -137 l-118 0 0 792 0 791 128 -6
c92 -4 146 -11 192 -27z"/>
<path d="M2464 3255 c-167 -30 -277 -88 -400 -210 -140 -139 -215 -284 -266
-517 -21 -95 -22 -129 -23 -433 0 -275 3 -346 18 -424 71 -378 261 -618 567
-716 115 -37 327 -46 481 -20 191 32 370 105 491 200 95 74 89 31 81 538 l-6
447 -406 -2 -406 -3 -3 -162 -2 -163 190 0 190 0 0 -209 0 -210 -26 -20 c-72
-57 -252 -92 -367 -73 -159 28 -257 125 -315 312 -37 120 -44 226 -40 555 4
279 7 318 26 390 46 169 136 300 239 348 70 32 226 31 300 -2 95 -42 158 -131
185 -261 l12 -60 214 0 215 0 -7 53 c-11 88 -45 198 -89 286 -47 97 -146 205
-239 259 -157 92 -415 133 -614 97z"/>
<path d="M4450 2828 c0 -7 12 -156 26 -331 15 -175 24 -320 21 -324 -4 -3
-135 51 -293 121 -158 70 -288 125 -289 124 -6 -6 -102 -313 -99 -316 1 -2
136 -36 298 -76 162 -40 298 -75 301 -78 4 -3 -90 -120 -209 -258 -215 -252
-215 -253 -193 -270 58 -44 246 -170 254 -170 5 0 81 124 168 275 88 151 164
273 168 272 5 -1 78 -126 164 -277 85 -151 159 -279 163 -284 9 -9 282 183
278 195 -2 4 -93 116 -203 249 -110 132 -201 244 -203 249 -1 4 123 36 275 71
153 35 292 67 310 72 l31 8 -34 108 c-19 59 -41 131 -50 160 -8 28 -19 52 -24
52 -5 0 -136 -56 -292 -124 -156 -68 -284 -123 -285 -122 -1 1 11 150 27 331
17 181 30 335 30 342 0 10 -38 13 -170 13 -129 0 -170 -3 -170 -12z"/>
</g>
</svg>
