<?xml version="1.0" standalone="no"?>
<!DOCTYPE svg PUBLIC "-//W3C//DTD SVG 20010904//EN"
 "http://www.w3.org/TR/2001/REC-SVG-20010904/DTD/svg10.dtd">
<svg version="1.0" xmlns="http://www.w3.org/2000/svg"
 width="700" height="700" viewBox="0 0 700 700"
 preserveAspectRatio="xMidYMid meet">
<g transform="translate(0,700) scale(0.1,-0.1)"
fill="#000000" stroke="none">
<path d="M2279 5515 c-82 -253 -167 -512 -188 -575 -75 -226 -386 -1179 -406
-1245 -2 -7 75 -10 228 -10 l230 0 13 40 c7 22 36 123 64 225 28 102 54 191
58 199 7 12 63 14 343 14 184 -1 337 -2 340 -2 4 -1 34 -101 68 -223 34 -123
66 -230 70 -238 7 -13 44 -15 235 -15 172 0 226 3 226 12 0 7 -15 59 -34 115
-38 113 -93 285 -155 478 -21 69 -60 188 -84 265 -25 77 -127 394 -227 705
-100 311 -191 594 -202 630 -11 36 -24 69 -29 75 -6 6 -90 10 -204 10 l-195 0
-151 -460z m475 -582 c58 -210 106 -384 106 -387 0 -3 -106 -6 -236 -6 -219 0
-235 1 -230 18 3 9 55 193 117 407 61 215 114 394 117 400 3 5 9 -4 13 -20 3
-17 54 -202 113 -412z"/>
<path d="M3772 5970 c-10 -7 -10 -2273 0 -2280 4 -3 171 -5 370 -4 376 2 437
7 568 51 357 119 593 432 644 853 7 57 7 395 0 475 -7 83 -48 242 -86 333 -66
159 -201 322 -346 419 -105 69 -265 127 -412 150 -46 7 -729 10 -738 3z m764
-383 c182 -62 302 -210 350 -432 24 -108 29 -483 9 -602 -33 -203 -121 -360
-243 -437 -83 -52 -149 -68 -299 -74 l-143 -5 0 790 0 790 128 -3 c103 -2 140
-7 198 -27z"/>
<path d="M2478 3259 c-117 -18 -274 -85 -343 -145 -78 -67 -94 -82 -133 -129
-102 -124 -176 -299 -211 -500 -24 -142 -27 -616 -5 -764 64 -425 276 -692
619 -780 218 -56 556 -13 777 99 78 40 178 110 209 148 l24 28 0 449 -1 450
-409 0 -410 0 0 -163 c0 -138 2 -162 15 -163 8 0 94 -1 190 -2 l174 -2 -2
-204 c-2 -232 0 -225 -84 -261 -74 -32 -162 -48 -248 -44 -96 3 -124 9 -183
42 -97 53 -168 161 -206 317 -27 109 -32 180 -32 460 0 278 5 340 36 460 40
150 129 276 232 326 41 20 63 24 148 24 87 0 107 -4 155 -26 95 -45 146 -115
177 -245 16 -67 20 -74 43 -75 14 0 108 -1 210 -1 l185 -1 -1 39 c-3 92 -45
230 -99 329 -79 144 -218 253 -380 300 -139 40 -324 54 -447 34z"/>
<path d="M4455 2751 c4 -47 9 -104 11 -126 2 -22 6 -71 9 -110 20 -253 26
-318 31 -326 18 -30 -53 -5 -303 106 -157 69 -286 125 -288 123 -4 -5 -93
-282 -97 -302 -3 -17 46 -34 212 -71 8 -2 47 -11 85 -20 39 -9 77 -18 85 -20
144 -34 197 -47 208 -50 16 -6 8 -21 -33 -67 -16 -18 -77 -89 -135 -158 -58
-69 -117 -138 -131 -155 -15 -16 -47 -54 -73 -84 l-45 -54 22 -17 c61 -46 246
-170 255 -170 5 0 58 84 118 186 149 255 160 274 179 311 34 64 38 62 106 -59
35 -62 69 -120 74 -130 6 -9 32 -56 59 -105 107 -192 126 -223 134 -223 13 1
267 190 267 200 0 5 -90 118 -200 250 -110 133 -201 244 -203 249 -2 6 173 50
302 76 59 13 287 66 299 71 12 4 10 18 -9 82 -14 42 -36 114 -50 160 -14 45
-31 82 -38 82 -7 0 -32 -9 -55 -21 -36 -17 -151 -68 -479 -210 l-43 -19 5 48
c3 26 8 81 11 122 3 41 8 86 10 100 3 14 7 61 10 105 4 44 8 96 10 115 2 19 6
72 10 117 l6 83 -172 -1 -171 -1 7 -87z"/>
</g>
</svg>
