<?xml version="1.0" encoding="UTF-8"?>
<svg width="33px" height="44px" viewBox="0 0 33 44" version="1.1" xmlns="http://www.w3.org/2000/svg" xmlns:xlink="http://www.w3.org/1999/xlink">
    <!-- Generator: Sketch 49.1 (51147) - http://www.bohemiancoding.com/sketch -->
    <title>AD G*</title>
    <desc>Created with Sketch.</desc>
    <defs></defs>
    <g id="VBA-FInal" stroke="none" stroke-width="1" fill="none" fill-rule="evenodd">
        <g id="1" transform="translate(-35.000000, -32.000000)" fill="#272727">
            <path d="M46.8729038,48.0653996 L40.9923319,48.0653996 L39.8350569,52.1562323 L35.8518777,52.1562323 L42.2707171,32.563297 L45.7021721,32.563297 L51.9999013,52.1562323 L48.0167221,52.1562323 L46.8729038,48.0653996 Z M41.9208433,44.8492516 L45.9847625,44.8492516 L43.9797163,37.6364678 L41.9208433,44.8492516 Z M53.6954438,52.1562323 L53.6954438,32.563297 L58.7686145,32.563297 C60.069434,32.563297 61.2468823,32.7853301 62.3009946,33.229403 C63.355107,33.6734759 64.256696,34.2924772 65.0057886,35.0864257 C65.7548812,35.8803742 66.3335129,36.8290611 66.7417011,37.9325148 C67.1498893,39.0359686 67.3539803,40.2470583 67.3539803,41.5658201 L67.3539803,43.1806225 C67.3539803,44.4993844 67.1498893,45.7082312 66.7417011,46.8071995 C66.3335129,47.9061677 65.7616095,48.8526118 65.0259736,49.6465603 C64.2903378,50.4405087 63.4066909,51.0572673 62.3750064,51.4968546 C61.343322,51.9364419 60.2040006,52.1562323 58.9570081,52.1562323 L53.6954438,52.1562323 Z M57.503686,35.6314215 L57.503686,49.1150212 L58.9570081,49.1150212 C59.6657305,49.1150212 60.3004311,48.9804556 60.8611292,48.7113206 C61.4218273,48.4421855 61.8972921,48.0519455 62.287538,47.5405889 C62.6777838,47.0292322 62.9760707,46.4079881 63.1824076,45.6768378 C63.3887445,44.9456875 63.4919114,44.1136241 63.4919114,43.1806225 L63.4919114,41.5389068 C63.4919114,40.6597322 63.3909872,39.8590674 63.1891359,39.1368883 C62.9872846,38.4147092 62.686755,37.793465 62.287538,37.2731372 C61.8883209,36.7528094 61.394914,36.3491129 60.8073025,36.0620355 C60.2196909,35.774958 59.540135,35.6314215 58.7686145,35.6314215 L57.503686,35.6314215 Z M50.7080594,73.2939951 C50.4658378,73.5900437 50.1339096,73.8905733 49.7122646,74.1955931 C49.2906197,74.5006128 48.7904845,74.7764721 48.2118441,75.0231793 C47.6332037,75.2698864 46.9850465,75.4694919 46.2673529,75.6220018 C45.5496594,75.7745117 44.7781504,75.8507655 43.9528029,75.8507655 C42.8403779,75.8507655 41.8356221,75.6534027 40.9385052,75.2586713 C40.0413883,74.8639398 39.2743648,74.2942792 38.6374118,73.5496721 C38.0004588,72.8050651 37.5092947,71.8922623 37.1639047,70.8112365 C36.8185146,69.7302106 36.6458222,68.5034216 36.6458222,67.1308328 L36.6458222,64.4664089 C36.6458222,63.09382 36.8274857,61.867031 37.190818,60.7860052 C37.5541504,59.7049793 38.0565283,58.787691 38.6979669,58.0341128 C39.3394055,57.2805346 40.0929724,56.7063884 40.9586902,56.311657 C41.824408,55.9169255 42.7641239,55.7195628 43.777866,55.7195628 C44.8813198,55.7195628 45.8434632,55.8586138 46.6643252,56.1367201 C47.4851871,56.4148263 48.1781996,56.8162801 48.7433832,57.3410935 C49.3085669,57.8659069 49.7503903,58.5050931 50.0688668,59.2586713 C50.3873433,60.0122495 50.5959199,60.8600122 50.6946027,61.801985 L47.0074707,61.801985 C46.8818743,60.7972141 46.5791019,60.0414044 46.0991444,59.5345334 C45.6191868,59.0276623 44.8768337,58.7742306 43.8720628,58.7742306 C43.3876196,58.7742306 42.9390679,58.8975823 42.5263941,59.1442895 C42.1137204,59.3909966 41.754879,59.7520807 41.4498592,60.2275527 C41.1448395,60.7030247 40.9026216,61.2928702 40.7231982,61.9971069 C40.5437748,62.7013437 40.4540645,63.5154651 40.4540645,64.4394955 L40.4540645,67.1308328 C40.4630356,68.9609513 40.7680508,70.3626754 41.3691191,71.3360472 C41.9701874,72.3094191 42.8897185,72.8005832 44.1277398,72.8095544 C44.4237884,72.8095544 44.715347,72.7871268 45.0024244,72.7422709 C45.2895018,72.6974151 45.5586329,72.6346179 45.8098256,72.5538773 C46.0610183,72.4731368 46.2830514,72.3811837 46.4759316,72.2780153 C46.6688117,72.1748468 46.814591,72.0649517 46.9132739,71.9483265 L46.9267306,68.3957613 L43.6836692,68.3957613 L43.6836692,65.5698572 L50.6946027,65.5698572 L50.7080594,73.2939951 Z M59.3607087,67.0097226 L54.0856877,65.7178807 L54.973829,62.95926 L60.0200863,65.1930699 L59.5356456,59.3932381 L62.4826599,59.3932381 L61.9578491,65.2872667 L66.9637364,63.0938269 L67.8518777,65.9062743 L62.4961166,67.1308328 L66.1025085,71.4773424 L63.7072184,73.213255 L60.8678576,68.2073677 L58.0284967,73.0652314 L55.6197499,71.410059 L59.3607087,67.0097226 Z" id="AD-G*"></path>
        </g>
    </g>
</svg>