<?xml version="1.0" encoding="utf-8"?>
<svg xmlns="http://www.w3.org/2000/svg" viewBox="0 0 777.76 241.79">
  <defs>
    <style>
      .cls-1 {
        fill: #ee723f;
        stroke: #ee723f;
      }

      .cls-2, .cls-4, .cls-5, .cls-6, .cls-7 {
        fill: #1c3761;
      }

      .cls-2 {
        stroke: #1c3761;
      }

      .cls-3 {
        isolation: isolate;
      }

      .cls-4, .cls-5, .cls-6, .cls-7 {
        font-size: 41.12px;
        font-family: Verdana-Bold, Verdana;
        font-weight: 700;
      }

      .cls-5 {
        letter-spacing: -0.01em;
      }

      .cls-6 {
        letter-spacing: 0em;
      }

      .cls-7 {
        letter-spacing: 0em;
      }
    </style>
  </defs>
  <title>Layer 1</title>
  <g id="Ebene_2" data-name="Ebene 2">
    <g id="Layer_1" data-name="Layer 1">
      <g id="layer5">
        <path id="path5696" class="cls-1" d="M.53,108.46c.1,3.19-.51,6.51,1.19,9.4,4.33,11,8.44,22,12.9,32.93.87,1.55,3,3.24,3.13,4.71-2,1.35-3.34,2.62-.19,3.34,2.57,1.29,5.06,2.9,8.05,2.75,9.37.92,18.7,2.38,28.13,2.24,9.73.08,19.46.69,29.18.44,8.4-.66,16.92-.4,25.18-2.24,2.27-.55,4.87-.56,6.93-1.45,1.34-1.45,1-3.87,3.67-2.7,2.66.44,5.4-.49,7.9-1.21A125.91,125.91,0,0,0,141,144.12c3.24-3.48,7.41-5.83,11.18-8.68-5.28-6.06-10-12.62-16.22-17.83-3.61-3.46-7.21-6.92-11.54-9.47-2.31-1.25-4.2-3.86-7.08-3.26a122.28,122.28,0,0,0-18.94.83c-17.81,1.65-35.55,3.83-53.31,5.93-10.26.14-20.52.7-30.76-.13a23.11,23.11,0,0,1-9.46-1.62Z"/>
        <path id="path6219" class="cls-1" d="M78.72,214.82c10-5.7,19.68-12,28-20,20.87-18.49,42.19-36.64,60.78-57.49,6.91-6.63-1.48-13.83-4.83-19.77C147.11,94,127.21,73.86,108.09,53.29c-.36-8.38,12.46-4.82,18-4.16,14.16,4.25,27.31,11.51,39.62,19.59A54.87,54.87,0,0,0,182.77,82c20,13.8,42.72,23.33,62.5,37.52,7.56,5.87,12.28,16.43,6.68,25.22-3.36,10.68-10.53,19.48-17.67,27.86-20,16.63-39.34,34.62-62.41,47.06-10.71,5.14-15.36-10-26.25-4.74-12.66,3.61-24.21,10-36.51,14.54-8.85,4.34-23.54,6.38-28-4.43-1.25-3.25-2.5-6.64-2.35-10.18Z"/>
        <path id="path6224" class="cls-2" d="M222.78,187.83c13.26,13.54,25.64,27.9,38.48,41.83,7.32,4.86,16.51,3.14,24.76,4.25,18.22.73,36.46.27,54.69.24,5.51-3.93-.79-9.62-3.72-13-11.95-16.63-27.43-30.29-41.31-45.26-15.79-15.9-32-31.36-48.29-46.78.39,9.77.26,20.37-5.61,28.68-4.38,8.46-9.66,17-18.13,21.85-2.5,1.91-4,6.13-.87,8.21Z"/>
        <path id="path6232-1" class="cls-2" d="M227.29,74.81c1.19,8.38,3.74,14.49,7.69,22,5.15,10.75,12.14,20.51,19.65,29.74,5.08,3.58,9.5,8.94,16.19,9.17,6.17,1.92,2.45-8.73,6.42-11.65,12.28-18.27,27.51-34.29,42.17-50.64,10.82-11.69,22-23,33.78-33.77,3.78-6.47-5.55-11.17-11-11.09a119.17,119.17,0,0,0-28,1.08c-8,2.21-22.38,8.36-29.64,12.59-7.1,4.94-4.76,3.81-9.74,8.23-11.28,4.08-21.73,10.15-32.27,15.86-5.07,2.82-10.12,5.68-15.21,8.48,0-.67,0,.67,0,0Z"/>
        <path id="path6238-5" class="cls-2" d="M203.51,70C194.39,64,184,59.64,176.13,51.78c-.88-4.11-1.83-9,.93-12.58,2.9-6.16-.69-13.12,1.7-19.4A21.89,21.89,0,0,1,192.52,4.66C196.62,2.42,201.17.23,206,.79c4-1.14,7.87,1.23,10,4.5,5.14,6.47,6,15,7.56,22.77a55.94,55.94,0,0,1-1.23,24.78c-1.42,5.24-5.1,9.41-8.5,13.48-2.55,2.85-6.62,3.87-10.33,3.71Z"/>
        <g id="text6255-5" class="cls-3">
          <g class="cls-3">
            <text class="cls-4" transform="translate(392.5 65.27)">Zugang für alle</text>
          </g>
          <g class="cls-3">
            <text class="cls-5" transform="translate(392.5 119.96)">Accès pour tous</text>
          </g>
          <g class="cls-3">
            <text class="cls-6" transform="translate(392.5 174.64)">Accesso per tutti</text>
          </g>
          <g class="cls-3">
            <text class="cls-7" transform="translate(392.5 229.32)">Access for all</text>
          </g>
        </g>
      </g>
    </g>
  </g>
</svg>
